<?xml version="1.0" encoding="utf-8"?>
<!-- Generator: Adobe Illustrator 24.0.1, SVG Export Plug-In . SVG Version: 6.00 Build 0)  -->
<svg version="1.0" id="Layer_1" xmlns="http://www.w3.org/2000/svg" xmlns:xlink="http://www.w3.org/1999/xlink" x="0px" y="0px"
	 viewBox="0 0 120.2 35" style="enable-background:new 0 0 120.2 35;" xml:space="preserve">
<style type="text/css">
	.st0{fill:none;}
	.st1{fill:#011627;}
	.st2{fill:#27A599;}
</style>
<g>
	<path class="st0" d="M98.7,16.2c-3.5,0-5.2,2.2-5.2,6.7c0,4.4,1.7,6.7,5.2,6.7c3.5,0,5.2-2.2,5.2-6.7c0-2.2-0.4-3.9-1.3-5
		C101.6,16.8,100.3,16.2,98.7,16.2z"/>
	<path class="st1" d="M16.6,6.7c1.2,0,2.4,0.2,3.4,0.5c1.1,0.4,2.2,1,3.5,1.8c0.4,0.3,0.8,0.5,1.1,0.6c0.3,0.1,0.7,0.2,1.2,0.2
		c0.7,0,1.2-0.3,1.7-0.9c0.5-0.6,0.7-1.3,0.7-2.1c0-0.6-0.1-1-0.3-1.4c-0.2-0.4-0.5-0.8-1-1.1c-3-2.3-6.5-3.4-10.7-3.4
		c-3.3,0-6.1,0.7-8.6,2.1C5.2,4.3,3.3,6.3,2,8.9c-1.3,2.6-2,5.6-2,9c0,3.5,0.7,6.5,2,9.1c1.3,2.6,3.2,4.6,5.7,6
		c2.5,1.4,5.3,2.1,8.6,2.1c4.1,0,7.7-1.1,10.7-3.4c0.4-0.3,0.8-0.7,1-1.1c0.2-0.4,0.3-0.9,0.3-1.4c0-0.8-0.2-1.5-0.7-2.1
		c-0.5-0.6-1-0.9-1.7-0.9c-0.4,0-0.8,0.1-1.1,0.2c-0.3,0.1-0.7,0.3-1.2,0.6c-1.4,0.8-2.6,1.4-3.6,1.8c-1,0.4-2.1,0.5-3.3,0.5
		c-6.1,0-9.1-3.7-9.1-11.2c0-3.7,0.8-6.5,2.3-8.4C11.3,7.6,13.6,6.7,16.6,6.7z"/>
	<path class="st1" d="M46.2,10.9l-0.7,0c-1.4,0.1-2.6,0.5-3.8,1.2c-1.1,0.7-2,1.8-2.6,3.1V14c0-1-0.3-1.7-0.9-2.3
		c-0.6-0.6-1.4-0.8-2.4-0.8c-1,0-1.8,0.3-2.5,0.9c-0.7,0.6-1,1.4-1,2.4v17.3c0,1.1,0.3,1.9,1,2.5c0.7,0.6,1.5,0.8,2.6,0.8
		c1,0,1.8-0.3,2.5-0.8c0.7-0.6,1-1.4,1-2.5v-9c0-1.5,0.4-2.7,1.2-3.6c0.8-0.9,2-1.5,3.8-1.7l1.4-0.1c1.3-0.1,2.2-0.4,2.7-0.9
		s0.8-1.3,0.8-2.3c0-1-0.3-1.7-0.8-2.2C47.9,11.1,47.2,10.8,46.2,10.9z"/>
	<path class="st1" d="M54.9,0c-1.3,0-2.3,0.3-3,0.9s-1.1,1.5-1.1,2.6c0,1.1,0.4,2,1.1,2.6c0.7,0.6,1.7,1,3,1s2.3-0.3,3-1
		C58.6,5.5,59,4.6,59,3.5c0-1.1-0.4-1.9-1.1-2.6C57.1,0.3,56.2,0,54.9,0z"/>
	<path class="st1" d="M54.9,10.9c-1,0-1.9,0.3-2.6,0.9c-0.7,0.6-1,1.4-1,2.5v17.2c0,1.1,0.3,1.9,1,2.5c0.7,0.6,1.5,0.8,2.6,0.8
		c1,0,1.8-0.3,2.5-0.8c0.7-0.6,1-1.4,1-2.5V14.3c0-1.1-0.3-1.9-1-2.5C56.8,11.2,55.9,10.9,54.9,10.9z"/>
	<path class="st1" d="M81.4,29.2h-9.6l11-12.3c0.7-0.7,1-1.5,1-2.5c0-0.9-0.3-1.6-0.9-2.2c-0.6-0.6-1.4-0.9-2.3-0.9H65.8
		c-2.1,0-3.2,0.9-3.2,2.7c0,1.8,1.1,2.6,3.2,2.6h9.1L63.9,29.1c-0.7,0.7-1,1.5-1,2.5c0,0.8,0.3,1.5,0.9,2.1c0.6,0.6,1.4,0.9,2.3,0.9
		h15.3c2.1,0,3.2-0.9,3.2-2.6C84.6,30.1,83.5,29.2,81.4,29.2z"/>
	<path class="st1" d="M105.1,12.3c-1.9-1-4-1.5-6.5-1.5c-2.5,0-4.6,0.5-6.5,1.5c-1.9,1-3.3,2.4-4.3,4.2c-1,1.8-1.5,3.9-1.5,6.4
		c0,2.5,0.5,4.6,1.5,6.4c1,1.8,2.4,3.2,4.3,4.2c1.9,1,4,1.5,6.5,1.5c2.5,0,4.6-0.5,6.5-1.5c1.9-1,3.3-2.4,4.3-4.2
		c1-1.8,1.5-3.9,1.5-6.4c0-2.5-0.5-4.6-1.5-6.4C108.4,14.7,107,13.3,105.1,12.3z M98.7,29.5c-3.5,0-5.2-2.2-5.2-6.7
		c0-4.4,1.7-6.7,5.2-6.7c1.7,0,3,0.6,3.8,1.7c0.9,1.1,1.3,2.8,1.3,5C103.9,27.3,102.1,29.5,98.7,29.5z"/>
	<circle class="st2" cx="116.7" cy="28.8" r="3.5"/>
</g>
</svg>
