<?xml version="1.0" encoding="utf-8"?>
<!-- Generator: Adobe Illustrator 16.0.0, SVG Export Plug-In . SVG Version: 6.00 Build 0)  -->
<!DOCTYPE svg PUBLIC "-//W3C//DTD SVG 1.1//EN" "http://www.w3.org/Graphics/SVG/1.1/DTD/svg11.dtd">
<svg version="1.1" id="Layer_1" xmlns="http://www.w3.org/2000/svg" xmlns:xlink="http://www.w3.org/1999/xlink" x="0px" y="0px"
	 width="103.24px" height="30.496px" viewBox="254.469 381.254 103.24 30.496"
	 enable-background="new 254.469 381.254 103.24 30.496" xml:space="preserve">
<g>
	<path fill="#FFFFFF" d="M268.82,386.981c1.026,0,2.051,0.171,2.906,0.427c0.94,0.342,1.88,0.855,2.991,1.539
		c0.342,0.256,0.684,0.427,0.94,0.513s0.598,0.171,1.025,0.171c0.599,0,1.026-0.256,1.453-0.769s0.598-1.111,0.598-1.795
		c0-0.513-0.085-0.854-0.256-1.197c-0.171-0.342-0.427-0.684-0.854-0.94c-2.564-1.966-5.556-2.906-9.146-2.906
		c-2.82,0-5.213,0.599-7.351,1.795c-2.051,1.111-3.675,2.821-4.786,5.043s-1.709,4.786-1.709,7.692c0,2.991,0.598,5.556,1.709,7.777
		c1.111,2.223,2.735,3.932,4.872,5.129c2.137,1.196,4.53,1.794,7.35,1.794c3.504,0,6.582-0.939,9.146-2.905
		c0.342-0.257,0.684-0.599,0.854-0.94s0.256-0.77,0.256-1.196c0-0.684-0.171-1.282-0.598-1.795s-0.854-0.77-1.453-0.77
		c-0.342,0-0.684,0.086-0.94,0.171c-0.256,0.086-0.598,0.257-1.026,0.513c-1.196,0.684-2.222,1.197-3.077,1.539
		c-0.855,0.342-1.795,0.427-2.821,0.427c-5.213,0-7.778-3.162-7.778-9.572c0-3.163,0.684-5.556,1.966-7.18
		C264.291,387.75,266.256,386.981,268.82,386.981z"/>
	<path fill="#FFFFFF" d="M294.12,390.571h-0.598c-1.197,0.085-2.222,0.427-3.248,1.025c-0.94,0.598-1.709,1.539-2.222,2.65v-1.026
		c0-0.854-0.256-1.453-0.769-1.966c-0.513-0.513-1.197-0.684-2.051-0.684c-0.855,0-1.539,0.256-2.137,0.769
		c-0.598,0.513-0.854,1.197-0.854,2.051v14.787c0,0.939,0.256,1.624,0.854,2.137c0.599,0.513,1.282,0.684,2.223,0.684
		c0.854,0,1.538-0.257,2.137-0.684c0.598-0.513,0.854-1.197,0.854-2.137v-7.692c0-1.282,0.342-2.308,1.026-3.077
		c0.684-0.77,1.709-1.282,3.248-1.453l1.197-0.085c1.111-0.085,1.88-0.342,2.308-0.769s0.684-1.111,0.684-1.966
		s-0.256-1.453-0.684-1.88C295.573,390.742,294.974,390.485,294.12,390.571z"/>
	<path fill="#FFFFFF" d="M301.556,381.254c-1.111,0-1.966,0.256-2.564,0.769c-0.598,0.513-0.94,1.282-0.94,2.223
		c0,0.94,0.342,1.709,0.94,2.222c0.599,0.513,1.453,0.854,2.564,0.854c1.111,0,1.966-0.256,2.564-0.854
		c0.598-0.513,0.94-1.282,0.94-2.222c0-0.94-0.342-1.624-0.94-2.223C303.436,381.511,302.667,381.254,301.556,381.254z"/>
	<path fill="#FFFFFF" d="M301.556,390.571c-0.855,0-1.624,0.256-2.222,0.769c-0.599,0.513-0.855,1.197-0.855,2.137v14.701
		c0,0.939,0.256,1.624,0.855,2.137c0.598,0.513,1.282,0.684,2.222,0.684c0.854,0,1.539-0.257,2.137-0.684
		c0.598-0.513,0.854-1.197,0.854-2.137v-14.701c0-0.94-0.256-1.624-0.854-2.137C303.18,390.827,302.41,390.571,301.556,390.571z"/>
	<path fill="#FFFFFF" d="M324.205,406.212H316l9.401-10.513c0.599-0.598,0.855-1.282,0.855-2.137c0-0.769-0.257-1.368-0.77-1.88
		s-1.196-0.769-1.966-0.769h-12.649c-1.795,0-2.735,0.769-2.735,2.308s0.94,2.222,2.735,2.222h7.777l-9.401,10.684
		c-0.599,0.599-0.854,1.282-0.854,2.137c0,0.684,0.256,1.282,0.769,1.795s1.197,0.77,1.966,0.77h13.077
		c1.795,0,2.735-0.77,2.735-2.223C326.94,406.981,326,406.212,324.205,406.212z"/>
	<path fill="#FFFFFF" d="M344.462,391.767c-1.624-0.854-3.419-1.282-5.556-1.282s-3.932,0.427-5.556,1.282
		c-1.624,0.855-2.82,2.051-3.675,3.59c-0.855,1.539-1.282,3.333-1.282,5.47s0.427,3.932,1.282,5.47
		c0.854,1.539,2.051,2.735,3.675,3.59s3.419,1.282,5.556,1.282s3.932-0.428,5.556-1.282s2.82-2.051,3.675-3.59
		c0.854-1.538,1.282-3.333,1.282-5.47s-0.428-3.932-1.282-5.47S346.086,392.622,344.462,391.767z M338.991,406.468
		c-2.991,0-4.444-1.88-4.444-5.727c0-3.761,1.453-5.726,4.444-5.726c1.453,0,2.564,0.513,3.248,1.453
		c0.77,0.94,1.111,2.393,1.111,4.273C343.436,404.588,341.897,406.468,338.991,406.468z"/>
	<circle fill="#FFFFFF" cx="354.376" cy="405.87" r="2.992"/>
</g>
</svg>
