<?xml version="1.0" encoding="UTF-8"?><svg id="Layer_2" xmlns="http://www.w3.org/2000/svg" viewBox="0 0 367.99 61.29"><g id="Layer_1-2"><g><path d="M3.94,61.12c-1.13,0-2.04-.26-2.72-.77-.68-.51-1.08-1.19-1.19-2.04-.11-.85,.06-1.81,.51-2.89L23.58,3.74c.57-1.36,1.29-2.32,2.17-2.89,.88-.57,1.86-.85,2.93-.85,1.02,0,1.97,.28,2.85,.85,.88,.57,1.6,1.53,2.17,2.89l23.04,51.68c.51,1.08,.71,2.05,.59,2.93-.11,.88-.48,1.56-1.1,2.04-.62,.48-1.5,.72-2.63,.72-1.25,0-2.24-.31-2.98-.94-.74-.62-1.39-1.59-1.96-2.89l-5.95-13.77,3.99,2.38H10.49l3.91-2.38-5.86,13.77c-.57,1.36-1.19,2.34-1.87,2.93-.68,.59-1.59,.89-2.72,.89ZM28.51,10.37l-12.83,30.43-2.12-2.04h30.01l-1.96,2.04L28.68,10.37h-.17Z"/><path d="M71.26,61.12c-1.42,0-2.51-.4-3.27-1.19-.77-.79-1.15-1.9-1.15-3.31V5.1c0-1.47,.4-2.59,1.19-3.36,.79-.77,1.9-1.15,3.31-1.15h20.31c6.46,0,11.45,1.6,14.96,4.8,3.51,3.2,5.27,7.69,5.27,13.47s-1.76,10.36-5.27,13.56c-3.51,3.2-8.5,4.8-14.96,4.8h-15.98v19.38c0,1.42-.37,2.52-1.1,3.31-.74,.79-1.84,1.19-3.31,1.19Zm4.42-30.94h14.71c4.25,0,7.47-.95,9.65-2.85,2.18-1.9,3.27-4.72,3.27-8.46s-1.09-6.47-3.27-8.37c-2.18-1.9-5.4-2.85-9.65-2.85h-14.71V30.17Z"/><path d="M125.83,61.12c-1.42,0-2.51-.4-3.27-1.19-.77-.79-1.15-1.9-1.15-3.31V4.5c0-1.47,.38-2.59,1.15-3.36,.76-.77,1.85-1.15,3.27-1.15s2.51,.38,3.27,1.15,1.15,1.88,1.15,3.36V56.61c0,1.42-.37,2.52-1.1,3.31-.74,.79-1.84,1.19-3.31,1.19Z"/><path d="M148.95,60.52c-1.53,0-2.71-.41-3.53-1.23-.82-.82-1.23-2-1.23-3.53V5.35c0-1.53,.41-2.71,1.23-3.53,.82-.82,2-1.23,3.53-1.23h20.23c4.14,0,7.66,.62,10.58,1.87,2.92,1.25,5.16,3.03,6.71,5.35,1.56,2.32,2.34,5.13,2.34,8.42,0,3.63-1.08,6.69-3.23,9.18-2.15,2.49-5.07,4.17-8.76,5.02v-1.28c4.19,.57,7.48,2.14,9.86,4.72,2.38,2.58,3.57,5.94,3.57,10.07,0,5.33-1.76,9.42-5.27,12.28-3.51,2.86-8.44,4.29-14.79,4.29h-21.25Zm3.74-33.75h15.13c4.08,0,7.17-.82,9.27-2.46,2.1-1.64,3.14-4.05,3.14-7.23s-1.05-5.58-3.14-7.23c-2.1-1.64-5.19-2.46-9.27-2.46h-15.13V26.77Zm0,26.95h16.49c4.25,0,7.4-.84,9.44-2.51,2.04-1.67,3.06-4.21,3.06-7.61s-1.02-5.92-3.06-7.56c-2.04-1.64-5.19-2.46-9.44-2.46h-16.49v20.15Z"/><path d="M205.56,61.12c-1.42,0-2.49-.38-3.23-1.15-.74-.76-1.1-1.83-1.1-3.19V22.78c0-1.42,.37-2.49,1.1-3.23,.74-.74,1.76-1.1,3.06-1.1s2.39,.37,3.1,1.1c.71,.74,1.06,1.81,1.06,3.23v6.21h-.85c.91-3.4,2.58-5.98,5.01-7.73,2.44-1.76,5.55-2.78,9.35-3.06,1.02-.06,1.83,.2,2.42,.77,.59,.57,.92,1.44,.98,2.63,.11,1.19-.14,2.14-.76,2.85-.62,.71-1.59,1.12-2.89,1.23l-1.62,.17c-3.68,.34-6.49,1.5-8.41,3.49-1.93,1.98-2.89,4.7-2.89,8.16v19.29c0,1.36-.35,2.42-1.06,3.19-.71,.77-1.8,1.15-3.27,1.15Z"/><path d="M237.18,9.77c-1.7,0-3.02-.42-3.95-1.27s-1.4-2.04-1.4-3.57,.47-2.79,1.4-3.61c.94-.82,2.25-1.23,3.95-1.23s3.02,.41,3.95,1.23c.94,.82,1.4,2.03,1.4,3.61s-.47,2.72-1.4,3.57c-.93,.85-2.25,1.27-3.95,1.27Zm0,51.25c-1.36,0-2.41-.41-3.15-1.23-.74-.82-1.1-1.97-1.1-3.44V23.21c0-1.47,.37-2.61,1.1-3.4,.74-.79,1.78-1.19,3.15-1.19s2.42,.4,3.19,1.19c.76,.79,1.15,1.93,1.15,3.4V56.35c0,1.47-.37,2.62-1.1,3.44-.74,.82-1.81,1.23-3.23,1.23Z"/><path d="M271.86,61.29c-4.25,0-7.92-.89-11.01-2.68-3.09-1.78-5.48-4.31-7.18-7.56-1.7-3.26-2.55-7.1-2.55-11.52,0-3.29,.48-6.25,1.45-8.88,.96-2.64,2.34-4.86,4.12-6.67,1.78-1.81,3.97-3.22,6.54-4.21,2.58-.99,5.45-1.49,8.63-1.49,1.98,0,4.07,.3,6.25,.89,2.18,.6,4.21,1.57,6.08,2.93,.74,.45,1.2,1.01,1.4,1.66,.2,.65,.23,1.32,.08,2-.14,.68-.45,1.26-.94,1.74s-1.06,.77-1.74,.85c-.68,.08-1.42-.1-2.21-.55-1.36-.96-2.75-1.66-4.17-2.08-1.42-.42-2.78-.64-4.08-.64-2.04,0-3.84,.33-5.4,.98-1.56,.65-2.88,1.59-3.95,2.8-1.08,1.22-1.88,2.73-2.42,4.55-.54,1.81-.81,3.88-.81,6.21,0,4.65,1.09,8.29,3.27,10.92,2.18,2.63,5.28,3.95,9.31,3.95,1.3,0,2.66-.2,4.08-.59,1.42-.4,2.81-1.08,4.17-2.04,.79-.45,1.53-.62,2.21-.51,.68,.11,1.23,.41,1.66,.89,.42,.48,.71,1.05,.85,1.7,.14,.65,.1,1.32-.13,2-.23,.68-.71,1.25-1.45,1.7-1.81,1.3-3.78,2.24-5.91,2.81s-4.18,.85-6.16,.85Z"/><path d="M297.53,61.12c-1.36,0-2.41-.38-3.15-1.15-.74-.76-1.1-1.83-1.1-3.19V4.33c0-1.42,.37-2.49,1.1-3.23s1.78-1.1,3.15-1.1,2.42,.37,3.19,1.1c.76,.74,1.15,1.81,1.15,3.23V37.15h.17l15.9-15.81c.91-.91,1.73-1.61,2.46-2.12,.74-.51,1.7-.77,2.89-.77s2.1,.31,2.72,.94c.62,.62,.94,1.37,.94,2.25s-.42,1.77-1.27,2.68l-16.83,16.66v-4l18.36,18.27c.91,.91,1.33,1.81,1.27,2.72-.06,.91-.43,1.66-1.1,2.25-.68,.59-1.53,.89-2.55,.89-1.3,0-2.34-.26-3.1-.77-.76-.51-1.66-1.27-2.68-2.29l-17-16.49h-.17v15.21c0,2.89-1.45,4.34-4.33,4.34Z"/><path d="M350.91,61.29c-2.49,0-5.06-.28-7.69-.85-2.63-.57-5.06-1.53-7.27-2.89-.74-.51-1.25-1.08-1.53-1.7-.28-.62-.38-1.26-.3-1.91,.08-.65,.34-1.22,.76-1.7,.43-.48,.96-.78,1.62-.89,.65-.11,1.35,.03,2.08,.43,2.21,1.25,4.33,2.11,6.38,2.59,2.04,.48,4.05,.72,6.03,.72,3,0,5.27-.54,6.8-1.62,1.53-1.08,2.29-2.52,2.29-4.33,0-1.47-.51-2.62-1.53-3.44-1.02-.82-2.55-1.46-4.59-1.91l-8.07-1.61c-3.51-.74-6.18-2.04-7.99-3.91-1.81-1.87-2.72-4.25-2.72-7.14,0-2.61,.71-4.87,2.12-6.8,1.42-1.93,3.4-3.41,5.95-4.46,2.55-1.05,5.5-1.57,8.84-1.57,2.49,0,4.85,.31,7.06,.94,2.21,.62,4.25,1.56,6.12,2.81,.74,.4,1.22,.92,1.44,1.57,.23,.65,.27,1.29,.13,1.91-.14,.62-.44,1.18-.89,1.66-.45,.48-1.01,.76-1.66,.85-.65,.08-1.37-.07-2.17-.47-1.7-1.08-3.39-1.84-5.06-2.29-1.67-.45-3.33-.68-4.97-.68-3,0-5.26,.55-6.76,1.66-1.5,1.1-2.25,2.59-2.25,4.46,0,1.42,.45,2.58,1.36,3.48,.91,.91,2.32,1.56,4.25,1.96l8.08,1.62c3.68,.74,6.47,1.98,8.37,3.74,1.9,1.76,2.85,4.14,2.85,7.14,0,3.91-1.56,7-4.67,9.27-3.12,2.27-7.25,3.4-12.41,3.4Z"/></g></g></svg>